<svg xmlns="http://www.w3.org/2000/svg" xml:space="preserve" version="1.1" viewBox="21.82 85.45 707.05 320.8">

 <g>
  <title>Layer 1</title>
  <g id="OBJECTS">
   <path id="svg_2" d="m682.553,137.993c1.206,-0.362 2.211,-0.965 1.889,-2.131c-0.322,-1.166 -1.206,-2.653 -1.367,-5.146c-0.161,-2.492 -1.688,-2.211 -1.688,-2.211s-5.789,-9.889 -11.457,-13.025c-5.668,-3.136 -6.151,-5.869 -9.166,-4.864c-3.015,1.005 -12.784,10.532 -11.175,20.864c0,0 -1.769,-0.362 -1.568,1.085c0.201,1.447 -0.965,7.919 -0.362,8.201c0.603,0.281 0.603,0.281 0.603,0.281l-1.286,2.774c0,0 -5.548,-3.94 -5.99,-3.819c-0.442,0.121 -1.206,2.412 -1.206,2.412s-2.573,2.01 -2.693,4.141c0,0 -8.683,-0.925 -14.15,6.151c0,0 -2.492,-2.975 -3.779,-3.055c-1.286,-0.08 -6.673,0.965 -6.673,0.965s-10.773,-0.402 -11.417,-0.08c-0.643,0.322 -3.698,3.538 -3.698,3.538s-9.568,5.548 -12.703,11.658c-3.136,6.11 -1.688,13.909 3.618,14.311c0,0 -6.512,2.492 -9.728,5.708c-3.216,3.216 -4.904,23.316 -4.261,27.577c0.643,4.261 8.683,14.552 9.568,14.552s7.156,0.804 7.156,0.804l5.708,6.754c0,0 -0.322,6.914 2.331,8.844c2.653,1.93 8.12,-3.859 8.12,-3.859l-0.643,-0.724c0,0 -3.176,3.176 -5.95,3.658c-2.774,0.482 -1.889,-6.995 -1.889,-6.995s6.352,6.11 6.392,6.995c0.04,0.884 -1.568,11.698 -1.166,11.819c0.402,0.121 1.367,-0.643 1.367,-0.643l0.925,16.723l-6.03,19.658c0,0 -3.618,4.342 -3.618,5.065s-0.482,8.804 -0.482,8.804s-7.598,10.975 -7.718,11.336c-0.121,0.362 -19.658,12.181 -28.703,33.768c0,0 -6.633,1.327 -6.874,2.894c-0.241,1.568 0,3.015 0,3.015l-0.107,5.065l0,2.171c0,0 -4.435,-0.563 -5.079,3.859c0,0 -2.975,1.849 -3.216,5.467c-0.241,3.618 -5.628,10.452 -5.467,15.195c0.161,4.744 1.688,5.146 7.075,6.673c0,0 7.557,8.683 16.964,11.015c9.407,2.332 15.035,-0.08 15.517,-1.688c0.482,-1.608 0.965,-6.995 -5.306,-7.96c0,0 -0.161,-0.643 -0.804,-1.367c-0.643,-0.724 -5.387,-6.432 -5.387,-6.432l-2.332,-7.075l0.884,-4.583l4.1,-7.397c0,0 1.608,0.161 1.849,-3.538c0,0 5.306,-0.965 6.914,-1.849c1.608,-0.884 7.397,-13.909 7.397,-13.909s15.195,-13.427 17.527,-14.793c2.332,-1.367 15.195,-8.764 15.919,-9.809c0.724,-1.045 13.829,-28.22 14.15,-28.622c0.322,-0.402 3.216,-3.136 3.537,-3.377c0.322,-0.241 3.216,-4.261 3.216,-4.261l1.286,0c0,0 24.361,28.22 24.843,28.944s2.492,2.01 2.492,2.01l2.814,12.301c0,0 2.251,26.291 2.653,27.336s2.492,6.673 3.618,7.638c1.126,0.965 3.538,1.367 3.538,1.367s-0.724,2.251 -0.241,3.216s5.467,15.356 5.467,15.356s1.045,8.442 3.296,9.005c2.251,0.563 14.713,-6.593 14.713,-6.593s18.331,-8.844 21.949,-12.542c3.618,-3.698 1.849,-4.422 1.849,-4.422s-2.734,-2.814 -4.824,-2.734c-2.09,0.08 -7.075,2.412 -7.075,2.412l-10.532,-1.769l-7.879,-7.879c0,0 0.161,-3.055 0.322,-4.02c0.161,-0.965 -2.573,-18.331 -2.573,-18.331s-2.01,-20.743 -1.849,-21.868c0.161,-1.126 -1.126,-4.663 -1.126,-4.663s-0.322,-7.96 -0.322,-8.281s-19.939,-32.401 -19.939,-32.401l-8.844,-7.316l0,-4.02l1.126,0l1.849,2.492l1.126,0.08c0,0 0,-6.352 -2.733,-12.783c-2.734,-6.432 -3.538,-8.844 -2.171,-11.979c1.367,-3.136 4.422,-5.226 3.216,-9.487c-1.206,-4.261 0.402,-26.21 0.965,-36.18s-0.402,-20.823 -1.286,-22.351c-0.884,-1.528 -2.975,-3.94 -3.055,-4.261s-0.161,-2.412 -0.161,-2.412l0.643,-1.367l-2.653,-3.296c0,0 5.95,3.94 8.844,4.583c2.894,0.643 4.181,-2.01 4.1,-3.698c0,0 1.246,-0.322 1.407,-1.367c0.161,-1.045 0,-1.367 0.04,-1.769c0.04,-0.402 1.688,-0.563 1.809,-1.246c0.121,-0.683 -0.201,-1.729 -0.201,-1.729l0.362,-0.724c0,0 3.538,0.161 4.02,-0.442s-0.161,-2.533 -0.161,-2.533s-0.281,-4.663 -0.362,-5.186c0,0 0.844,-0.563 1.126,-1.045c0,0 1.166,-0.442 1.407,-1.085c0.243,-0.645 -0.481,-5.549 -0.481,-5.549z"/>
   <path id="svg_3" d="m248.412,238.903c0,0 -2.993,7.923 -3.169,8.716c-0.176,0.792 1.057,13.91 1.057,13.91l0.088,1.849l0.432,1.233l0,1.497l0,0.792l-3.689,8.452c0,0 -3.169,5.634 -3.345,5.898s-1.849,7.747 -1.849,7.747l-6.339,18.4c0,0 -2.817,-0.792 -2.817,1.585c0,2.377 -1.937,4.226 -0.968,5.194c0,0 -13.558,16.375 -17.607,22.625c-4.05,6.251 -12.501,32.485 -12.501,32.485s-4.358,-0.044 -6.163,0.924c-1.805,0.968 -1.541,4.71 -0.44,5.942c0,0 -2.201,3.609 -2.289,6.074c0,0 -5.106,4.93 -3.962,14.35c0,0 -0.88,1.32 -0.88,1.849c0,0.528 0,7.043 0.528,7.219c0.528,0.176 12.237,0.704 12.501,0.528s1.056,-1.849 1.056,-1.849l4.578,0.528c0,0 7.747,1.056 18.223,0.528c10.476,-0.528 16.023,-2.641 16.023,-3.521c0,-0.88 -1.32,-2.553 -1.32,-2.553s0.264,-6.779 -3.609,-7.307c-3.874,-0.528 -12.413,0.528 -12.413,0.528l-1.409,-1.144l-7.219,-8.363c0,0 1.585,-7.043 1.497,-7.571c-0.088,-0.528 -1.761,-2.377 -1.761,-2.377s18.752,-27.996 23.154,-34.246c4.402,-6.251 14.614,-15.23 14.614,-15.23s1.673,0 2.553,-0.44c0.88,-0.44 5.018,-4.842 5.194,-6.339c0.176,-1.497 0,-1.849 0,-1.849s19.28,-26.411 20.6,-27.643c1.321,-1.233 2.641,-2.905 2.641,-2.905l1.937,-1.673c0,0 14.79,19.544 15.67,21.217c0.88,1.673 0.176,2.201 1.761,3.874c1.585,1.673 3.874,3.698 4.138,3.698s8.716,-5.722 8.716,-5.722l3.169,0.88c0,0 0.088,27.203 2.113,31.517c2.025,4.314 7.747,24.65 7.747,24.65s-4.138,1.056 -5.018,2.993c-0.88,1.937 1.144,5.194 3.609,6.163c0,0 -0.176,4.578 1.409,6.603c0,0 -0.88,7.747 1.761,10.476c0,0 1.673,4.314 2.113,4.49c0.44,0.176 13.382,-2.993 14.35,-3.521c0.968,-0.528 1.233,-3.345 1.233,-3.345s11.709,-1.233 15.582,-2.113c3.874,-0.88 14.832,-12.963 14.744,-13.227c-0.088,-0.264 -1.715,-1.651 -1.715,-1.651s-4.358,-5.15 -10.652,-1.233c-4.747,2.954 -4.666,3.081 -4.666,3.081l-7.131,-0.264c0,0 -8.892,-4.754 -9.068,-5.458c-0.176,-0.704 -1.761,-5.37 -2.201,-6.074c-0.44,-0.704 -1.32,-0.792 -1.32,-0.792s-1.409,-9.068 -1.673,-19.544c-0.264,-10.476 -1.056,-33.102 -0.616,-36.447s-1.673,-8.628 -1.673,-8.628s0.792,-0.44 0.264,-1.057c-0.528,-0.616 -12.589,-20.424 -13.382,-21.833s-8.628,-16.639 -9.244,-17.079c-0.616,-0.44 -1.409,-0.704 -1.673,-0.792c-0.264,-0.088 -3.521,-7.747 -4.314,-8.452c-0.792,-0.704 -2.817,-2.113 -2.817,-2.113l-2.201,-7.131c0,0 -1.145,-1.849 -1.145,-2.289s0.968,-3.697 1.233,-4.402s1.497,-7.043 1.497,-7.043l1.057,-0.792c0,0 10.366,8.165 12.149,9.222c1.783,1.056 6.207,1.188 6.207,1.188s5.216,5.744 5.81,5.81c0.594,0.066 2.377,0.264 2.377,0.264l3.5,3.962l1.122,-0.198l3.566,5.194c0,0 -1.277,1.277 -0.616,1.981c0.66,0.704 3.654,2.157 4.93,2.157c1.277,0 3.213,-0.88 3.213,-0.88l0.484,-1.188c0,0 1.453,-0.044 2.025,-0.528c0.572,-0.484 0.704,-1.893 0.704,-1.893s1.409,-0.616 1.629,-1.277c0.22,-0.66 0.044,-2.113 0.044,-2.113s0.748,-1.277 0.528,-2.245c-0.22,-0.968 -1.981,-3.477 -3.081,-4.182c-1.1,-0.704 -6.999,-3.345 -6.999,-3.345l-0.044,-1.188c0,0 -4.534,-4.094 -4.666,-4.138c-0.132,-0.044 -0.396,0 -0.396,0s-12.369,-11.885 -12.633,-12.149c-0.264,-0.264 -7.703,-12.149 -7.967,-12.501c-0.264,-0.352 -1.056,-0.924 -1.056,-0.924l0.22,-3.609c0,0 3.565,-8.584 3.477,-9.992c-0.088,-1.409 -1.32,-6.867 -1.32,-6.867s4.314,-18.752 4.226,-19.28c-0.088,-0.528 -2.289,-4.05 -2.289,-4.05s6.251,-7.241 6.449,-7.967c0.198,-0.726 0.396,-3.169 0.396,-3.169s6.14,-0.198 7.461,-1.453c1.321,-1.255 0.594,-5.48 0.594,-5.48s1.475,-0.99 1.078,-2.663c0,0 0.572,-1.145 0.528,-1.673c-0.044,-0.528 -0.616,-3.257 -0.616,-3.257s2.509,-0.44 2.509,-1.585s-1.409,-4.974 -1.409,-4.974s1.145,-1.277 0.88,-2.773c0,0 1.497,-1.849 0.528,-5.81c0,0 1.32,-2.465 0.748,-4.71l-0.352,0.748l-0.484,-3.697l-0.44,1.673c0,0 -1.321,-3.345 -4.798,-5.898l0.352,0.924c0,0 -4.622,-3.565 -10.608,-3.918c-5.986,-0.352 -8.275,1.277 -8.275,1.277l0.924,0.308c0,0 -11.357,5.502 -12.677,11.225c-1.32,5.722 2.025,15.89 2.025,15.89l0.484,-1.056l-0.66,5.502l1.1,-1.893l0.132,2.113l0.704,-0.616c0,0 0.264,2.421 0.176,2.729c-0.088,0.308 -0.836,2.993 -0.836,2.993s-1.1,0.308 -1.32,1.365c-0.22,1.056 -0.572,2.465 -0.572,2.465s-7.615,0 -12.171,3.565l-1.651,-2.509c0,0 -1.783,-11.951 -13.602,-8.848c0,0 -20.732,-3.103 -21.789,-2.509c-1.056,0.594 -4.292,11.819 -4.292,11.819l-3.367,0.066l-1.321,-1.915c0,0 -5.81,-0.858 -6.141,-0.594c-0.33,0.264 -1.981,7.461 -1.981,8.187s0.528,1.519 0.528,1.519s-13.756,31.363 -17.981,39.55c-4.226,8.187 -2.905,15.054 -1.232,15.846c0,0 1.783,7.065 4.886,8.187c3.103,1.122 5.546,-2.509 5.546,-2.509l2.707,2.245c0,0 3.411,28.348 -17.365,30.284l0.264,1.32c0,0 6.603,1.761 12.941,-4.842c6.339,-6.603 6.251,-25.442 6.251,-25.442s4.842,3.257 5.106,3.345c0.264,0.088 12.589,1.056 12.589,1.056s2.817,3.169 3.433,3.169c0.616,0 2.993,-2.465 2.993,-2.465l0.792,0.704l-5.458,11.005c-0.001,-0.001 -3.61,0.879 -3.434,3.432z"/>
   <path id="svg_4" d="m106.995,397.564c-2.581,-1.903 -8.927,-2.392 -8.927,-2.392l-5.211,-8.4l0.203,-2.499c0,0 -1.098,-4.602 -1.403,-5.312c-0.304,-0.71 -2.662,-6.302 -2.662,-7.075c0,-0.774 -1.203,-6.182 -1.203,-6.487c0,-0.304 -3.065,-25.935 -3.166,-26.645c-0.102,-0.71 0,-1.725 0,-1.725l1.42,-1.623c0,0 0.203,-12.884 0.304,-14.102c0.102,-1.217 -0.304,-2.029 0.203,-3.043c0.507,-1.015 1.695,-5.312 2.101,-7.138c0.406,-1.826 0.406,-3.043 0.406,-3.754s-0.659,-11.159 -0.659,-11.768s1.217,-1.826 1.928,-4.464c0.71,-2.638 1.42,-6.188 1.42,-6.188l5.478,-9.131c0,0 23.815,35.11 24.627,36.226c0.812,1.116 1.623,5.073 1.623,5.073s-1.623,4.058 0.102,6.899s3.551,3.652 3.551,3.652s-2.435,5.073 -1.928,7.203c0.507,2.13 0.609,2.841 0.609,2.841s-1.116,7 -1.217,7.609c-0.101,0.609 1.649,4.963 1.75,5.47c0.101,0.507 3.043,8.116 3.043,8.116l-0.609,3.043c0,0 -2.029,6.493 -2.029,7.406s-0.724,15.27 -0.724,15.27s-2.923,11.614 -3.126,13.035c-0.203,1.42 -0.032,8.574 -0.032,8.574l46.897,0c1.116,-0.203 -0.812,-3.484 -0.812,-3.484s0.44,-3.516 -2.671,-5.342c-1.493,-0.876 -2.463,-1.635 -7.156,-1.877l1.742,-116.952l-0.46,-1.476l0.266,-22.121c0,0 3.274,-0.604 3.68,-1.212c0.406,-0.609 0.575,-1.758 0.575,-1.758s-0.203,-0.981 -0.203,-1.082c0,-0.101 3.077,-1.184 2.299,-4.295c0,0 1.589,-1.048 0.947,-4.024c0,0 0.981,-3.213 -0.389,-6.002c-1.37,-2.79 -8.116,-5.377 -9.486,-5.377s-1.826,0.406 -1.826,0.406s-0.457,-0.812 -0.609,-0.812c-0.152,0 -1.725,0 -1.725,0l-0.812,-0.913c0,0 -6.036,-5.174 -6.138,-5.529c-0.101,-0.355 -0.71,-2.841 -0.71,-2.841s-5.884,-5.275 -5.935,-5.478c-0.051,-0.203 -2.739,-7.71 -3.754,-9.739c-1.014,-2.029 -3.196,-3.551 -3.196,-3.551s-0.203,-5.377 -1.268,-7.406c-1.065,-2.029 -2.587,-2.688 -2.587,-2.688s0,-4.616 -0.051,-8.877c-0.051,-4.261 -1.268,-7.862 -1.268,-7.862s-2.824,-10.635 -3.229,-14.693c-0.406,-4.058 0.135,-10.348 -4.058,-14.812c0,0 -0.609,-7.102 -3.111,-9.807c4.87,0.304 5.529,-1.522 5.377,-3.246c-0.152,-1.725 0.019,-2.891 0.019,-2.891s0.894,-0.862 0.437,-1.775c0,0 0.431,-0.456 0.406,-1.293c-0.025,-0.837 -0.304,-1.826 -0.304,-1.826s1.598,-0.533 2.333,-0.862c0.735,-0.33 0.685,-1.572 0.355,-2.181c-0.33,-0.609 -3.906,-5.301 -3.906,-5.301s0.736,-1.217 0.71,-2.917c-0.025,-1.699 -0.482,-2.156 -0.837,-2.004c0,0 -0.507,-1.598 -0.913,-2.333c-0.406,-0.735 -5.149,-6.239 -5.707,-6.949c-0.558,-0.71 -1.623,0 -1.623,0s-12.986,-7.862 -19.681,-2.79c0,0 -1.116,0 -1.319,1.014c0,0 -2.029,-0.102 -4.21,2.486c-2.181,2.587 -5.884,7.304 -3.297,16.283c0,0 -0.507,0.66 -0.135,1.809c0.372,1.15 3.483,5.005 4.227,5.242c0.744,0.237 1.15,0.237 1.15,0.237l-0.71,1.082l-3.179,0.981c0,0 -1.403,-8.184 -4.244,-6.662c0,0 -12.631,-12.986 -17.551,-14.71c-4.92,-1.725 -22.252,3.111 -31.695,8.184c-9.443,5.073 -9.443,8.048 -9.443,8.048l-0.338,8.387c0,0 -0.676,1.961 -0.676,2.773s3.382,12.106 3.382,12.106s-0.609,6.019 0.541,7.237c0,0 -0.406,12.715 0.203,18.599c0.609,5.884 1.556,8.86 1.556,8.86l-1.42,6.899c0,0 -0.812,3.99 1.826,16.232c0,0 -7.575,16.908 -7.304,17.517c0.271,0.609 2.3,2.232 2.773,1.961c0.473,-0.271 6.222,-14.676 6.222,-14.676s6.29,15.353 8.048,16.841c1.758,1.488 6.56,1.894 6.56,1.894s10.077,4.464 16.57,4.802c0,0 -2.773,8.657 -3.855,13.459c-1.082,4.802 -0.271,7.981 1.082,8.319c0,0 0.068,2.908 0.406,3.652c0.338,0.744 1.894,2.502 1.894,2.502l-1.15,7.44c0,0 1.623,25.16 0.676,30.164c-0.947,5.005 -1.217,15.556 -1.623,22.048c-0.406,6.493 1.488,23.807 1.623,29.894c0.135,6.087 3.652,17.314 3.652,17.314s0.135,8.387 1.082,10.957c0.947,2.57 2.152,5.259 2.152,5.259l0.871,5.516c0,0 -3.001,13.843 -0.871,15.061c2.13,1.217 41.785,0.937 41.785,0.937s0.358,-6.354 -2.751,-8.647zm20.565,-158.977c0.101,-1.42 -1.217,-9.232 -1.217,-9.232l5.275,3.348l5.681,1.42l0.913,0.304l1.217,1.725c0,0 7.102,5.174 7.609,5.174c0.507,0 1.522,0 1.522,0s0,1.319 0.71,1.928c0.71,0.609 5.884,3.449 5.884,3.449l-0.71,8.725l-3.957,12.681l5.275,1.725l0.71,-11.87l-0.102,-10.348l1.014,0l0,29.609l-0.367,1.548l-0.835,116.398c-0.721,-0.898 -2.064,-1.016 -2.064,-1.016s-1.733,-5.366 -2.544,-6.076c-0.812,-0.71 -2.103,-2.439 -2.103,-2.439s0.102,-31.603 0.203,-32.82c0.101,-1.217 1.192,-5.572 1.192,-6.079c0,-0.507 1.826,-5.072 1.826,-5.072s0.102,-4.261 0.203,-4.768c0.101,-0.507 2.739,-11.768 2.739,-12.986s-3.754,-18.971 -4.464,-20.797c-0.71,-1.826 -2.113,-12.392 -2.113,-12.392s-10.137,-27.283 -11.456,-28.5c-1.319,-1.217 -1.522,0.406 -1.725,-1.522c-0.203,-1.928 -1.217,-5.377 -1.42,-5.783c-0.203,-0.406 -4.768,-2.942 -5.275,-4.261c-0.507,-1.319 -1.623,-4.565 -1.623,-4.565s-2.739,-1.623 -3.246,-2.435c-0.507,-0.812 -0.609,-1.522 -0.609,-1.522s3.756,-2.13 3.857,-3.551z"/>
   <path id="svg_5" d="m540.914,353.966l-0.69,-1.229l-21.202,-156.512c0,0 1.799,-2.159 2.039,-3.419c0.24,-1.26 0.96,-8.337 0.96,-9.656s-2.339,-7.677 -2.339,-7.677l-0.18,-2.039c0,0 1.694,-3.284 1.694,-3.734c0,-0.45 -0.09,-1.529 0.045,-1.799c0.135,-0.27 0.9,-1.439 0.81,-2.159c-0.09,-0.72 -0.45,-1.664 -0.45,-2.294c0,-0.63 0.36,-1.125 -0.135,-1.844c-0.495,-0.72 -1.44,-1.664 -1.53,-1.799c-0.09,-0.135 -0.81,-2.294 -0.945,-2.339c-0.135,-0.045 -4.858,-1.169 -4.858,-1.169l-0.045,-0.99l1.08,-0.585c0,0 -3.284,-2.834 -6.793,0.495l0.675,0l0.72,4.363c0,0 -1.709,-1.035 -3.239,0.675c0,0 -4.318,-13.36 -8.817,-15.474l5.263,-0.315c0,0 3.149,-3.824 2.699,-11.696c-0.45,-7.872 -2.654,-12.415 -4.363,-13.315l-26.195,0.18c0,0 0.18,-5.398 0.21,-7.437s-1.17,-5.428 -1.17,-5.788c0,-0.36 0.12,-2.189 0.24,-3.599c0.12,-1.41 -0.78,-5.248 -0.78,-5.248c1.859,-2.159 0,-4.258 0,-4.258l0,0.84c0,0 -1.559,-6.717 -5.338,-7.377l0,0.72c0,0 -8.577,-4.438 -16.314,-0.18l2.759,-0.06l-1.979,0.72l1.02,0c0,0 -8.997,6.118 -11.876,11.576l0.96,-0.84l-0.96,2.699l0.54,-0.48l-0.54,1.979l3.179,8.997c0,0 -0.24,5.278 3.239,6.238l0.84,1.979l-33.947,0.66c0,0 -2.399,3.359 -2.579,8.037l0.96,0c0,0 0.24,8.997 0.84,14.095c0.6,5.098 4.078,3.899 4.078,3.899l5.998,0.123l0.42,1.197c0,0 -2.699,5.998 -2.099,9.656l-0.96,5.698l-2.159,9.177c0,0 -1.739,2.939 -1.559,3.119c0.18,0.18 0.18,0.18 0.18,0.18s-1.859,5.338 -2.039,8.997c-0.18,3.659 -1.799,7.617 -3.119,11.336c-1.32,3.719 -0.12,8.217 1.319,11.876c1.44,3.659 11.936,16.374 12.355,17.693s1.559,1.919 1.559,1.919s1.32,3.119 2.279,3.299c0.96,0.18 2.759,-0.42 2.759,-0.42l0.628,0l-0.268,0.84c0,0 -2.459,2.039 -2.039,4.438l-5.218,14.155l0.12,0.63l-56.289,143.51l-0.9,0.436l-2.609,7.707c0,0 0.54,1.08 2.279,0.96l2.699,-7.197l0.06,-0.9l58.058,-143.527l0.84,-0.06l6.418,-14.455c0,0 2.159,-0.78 1.439,-4.198c0,0 0.87,0.12 1.889,0.06s1.11,-1.14 0.93,-2.039l0.9,-0.6l0.99,0.57c0,0 -3.179,10.016 -3.224,11.906c-0.045,1.889 1.454,29.449 1.454,29.449s1.02,30.109 1.02,30.289s-0.48,1.859 -0.48,2.279c0,0.42 1.02,2.639 1.02,2.639l0.84,20.632c0,0 0.12,29.629 0.3,30.349c0.18,0.72 1.32,5.098 1.32,5.098s0.66,7.797 0.78,8.637c0.12,0.84 4.258,8.937 4.618,9.057c0.36,0.12 2.159,1.499 2.159,1.739s-2.519,3.119 -2.219,3.719c0.3,0.6 0.575,0.851 0.575,0.851l2.124,1.069l0.84,1.919l3.898,3.299c0,0 -0.42,1.379 -1.139,2.759c-0.72,1.379 1.919,7.617 1.679,7.737l-0.09,0.6c0,0 0.15,1.169 0.36,1.199c0.017,0.002 0.146,0.002 0.352,0l18.745,0c2.468,0 2.25,-0.466 2.105,-2.038c-0.079,-0.852 -0.197,-1.271 -0.532,-1.476c0.04,-0.27 -0.042,-0.452 -0.26,-0.634c0,0 1.277,-5.414 -3.296,-8.801l-1.03,-2.976l0.36,-1.844c0,0 0.332,-4.236 0.639,-5.797c0.907,2.212 2.363,4.198 4.659,5.498c7.152,4.049 9.626,1.844 10.301,0c0,0 1.889,-2.204 2.069,-5.443c0.18,-3.239 -1.035,-13.36 -1.035,-13.36l1.395,-10.436c0,0 3.329,-0.27 3.599,-0.585s1.664,-3.599 1.664,-3.599s2.654,-4.543 2.789,-4.633c0.135,-0.09 1.529,-6.133 1.649,-6.733c0.12,-0.6 0.48,-4.438 0.48,-4.438s6.478,-15.054 6.658,-16.194c0.18,-1.14 1.979,-14.874 2.039,-15.774c0.06,-0.9 -0.3,-4.918 -0.3,-4.918l-1.559,-6.897l-4.018,-22.132c0,0 -1.739,-17.214 -1.679,-17.393s0.66,-5.818 0.24,-7.257s-4.858,-6.178 -4.858,-6.178l-2.519,-10.436l1.679,-3.479l-0.24,-3.539l1.799,5.338l3.059,-1.439l-1.559,-8.097c0,0 4.978,8.877 5.938,8.577c0.96,-0.3 4.318,-2.519 4.318,-2.519l-12.236,-16.314c0,0 -2.159,-11.396 -8.277,-19.673l1.259,-5.338l1.379,-7.617l0.42,0c0,0 2.399,5.878 5.578,8.997c3.179,3.119 8.157,10.256 9.297,10.976c1.14,0.72 5.578,1.559 5.578,1.559l22.492,153.798l-0.63,1.664l1.11,14.095c0,0 2.879,1.29 4.348,-0.45l-2.251,-14.312zm-97.449,-140.093c-0.135,0.135 0,1.17 0,1.17s-3.284,-0.405 -3.824,-0.315c-0.54,0.09 -0.225,1.17 -0.225,1.17s-2.654,-0.54 -2.879,-0.585c-0.225,-0.045 -2.475,1.934 -2.475,1.934l-2.788,-5.218c0,0 -1.349,-6.478 -2.879,-8.997c-1.529,-2.519 -0.81,-5.128 1.35,-8.457c2.159,-3.329 4.317,-12.595 4.317,-12.595l1.036,0c0,0 0.405,4.993 0.919,7.017c0.515,2.024 3.669,2.699 4.344,5.938c0.675,3.239 4.093,16.734 4.093,16.734s-0.854,2.07 -0.989,2.204zm31.438,161.476c-0.099,-0.352 -4.085,-4.045 -3.819,-4.889c0.27,-0.855 1.934,-2.969 1.934,-2.969s0,-1.905 0,-3.532l1.14,-0.276c0,0 1.424,2.821 1.02,6.261c-0.136,1.157 -0.338,3.135 -0.275,5.405zm-0.535,2.533c0,0 0.496,-2.065 0.537,-2.474c0.035,1.187 0.144,2.451 0.372,3.72c-0.469,-0.704 -0.909,-1.246 -0.909,-1.246zm9.747,-41.549c-0.12,0.18 -1.87,1.739 -1.87,1.739l0,2.039l-4.728,4.276l-1.199,2.562l-0.54,1.799c0,0 -2.279,1.379 -3.119,2.219c-0.497,0.497 -1.077,2.293 -1.468,3.679c-0.909,-3.512 -1.815,-7.106 -1.815,-7.532c0,-0.855 1.394,-13.618 1.484,-14.254c0.09,-0.636 -1.319,-17.699 -1.319,-17.699s0.42,-11.396 0.48,-12.535s-0.48,-9.776 -0.48,-10.016s4.738,-19.373 4.738,-19.373l8.277,27.89l1.319,2.159c0,0 0.84,5.098 0.84,5.278c0,0.18 2.399,4.858 2.399,4.858l1.2,4.378c-0.001,0 -4.079,18.353 -4.199,18.533z"/>
  </g>
 </g>
</svg>